<svg width="28" height="19" viewBox="0 0 28 19" fill="none" xmlns="http://www.w3.org/2000/svg">
<path d="M1.71387 0.00280762H25.7084C26.6545 0.00280762 27.4223 0.741908 27.4223 1.65346V17.3271C27.4223 18.2378 26.6545 18.9769 25.7084 18.9769H1.71387C0.766941 18.977 0 18.2378 0 17.3272V1.65346C0 0.741908 0.767787 0.00280762 1.71387 0.00280762Z" fill="#26A6D1"/>
<path d="M4.42185 6.60168L1.71387 12.3704H4.9557L5.35759 11.4507H6.27623L6.67812 12.3704H10.2465V11.6684L10.5644 12.3704H12.4102L12.7282 11.6536V12.3704H20.1494L21.0518 11.4746L21.8967 12.3704L25.7084 12.3779L22.9919 9.50217L25.7084 6.60168H21.9558L21.0774 7.48102L20.2591 6.60168H12.1858L11.4926 8.09065L10.783 6.60168H7.54798V7.2798L7.1881 6.60168C7.1881 6.60168 4.42185 6.60168 4.42185 6.60168ZM5.04913 7.42086H6.62934L8.42554 11.3327V7.42086H10.1566L11.544 10.2256L12.8226 7.42086H14.545V11.5603H13.4969L13.4884 8.31666L11.9604 11.5603H11.0229L9.48638 8.31666V11.5603H7.3303L6.92155 10.6323H4.71321L4.30531 11.5595H3.1501L5.04913 7.42086ZM15.5039 7.42086H19.7655L21.0689 8.77619L22.4143 7.42086H23.7177L21.7373 9.50135L23.7177 11.5579H22.3552L21.0518 10.1868L19.6995 11.5579H15.5039V7.42086ZM5.81785 8.12123L5.09029 9.77441H6.54457L5.81785 8.12123ZM16.5562 8.27794V9.03359H18.8811V9.87584H16.5562V10.7008H19.1639L20.3756 9.4857L19.2153 8.27721H16.5562V8.27794Z" fill="white"/>
<defs>
<clipPath id="clip0">
</clipPath>
</defs>
</svg>
