<svg width="28" height="21" viewBox="0 0 28 21" fill="none" xmlns="http://www.w3.org/2000/svg">
<path d="M1.68464 0.940552H25.27C26.2 0.940552 26.9547 1.6845 26.9547 2.60303V18.3969C26.9547 19.3146 26.2 20.0594 25.27 20.0594H1.68464C0.754695 20.0594 0 19.3146 0 18.3969V2.60312C0 1.68459 0.754695 0.940552 1.68464 0.940552Z" fill="#E4E7E7"/>
<path d="M5.42126 4.26484H3.36763V10.9182H5.41027C6.49431 10.9182 7.27857 10.6796 7.96592 10.1501C8.78131 9.52169 9.26568 8.57325 9.26568 7.594C9.26568 5.62975 7.68544 4.26484 5.42126 4.26484ZM6.94257 8.84749C6.57783 9.12683 6.1087 9.24645 5.36232 9.24645H5.0532V5.9348H5.36232C6.1086 5.9348 6.56009 6.04703 6.94257 6.33877C7.34186 6.63972 7.58021 7.10514 7.58021 7.58561C7.58021 8.06616 7.34176 8.54909 6.94257 8.84749ZM10.1097 10.9173H11.7826V4.25317H10.1097V10.9173ZM15.5807 6.82927C14.7257 6.55329 14.4747 6.36959 14.4747 6.02706C14.4747 5.62637 14.9229 5.31886 15.5361 5.31886C15.9631 5.31886 16.3126 5.47184 16.6859 5.83506L17.4288 4.98472C16.8156 4.51593 16.0836 4.27651 15.2842 4.27651C13.9954 4.27651 13.0099 5.06039 13.0099 6.10191C13.0099 6.98307 13.4689 7.4319 14.8041 7.85255C15.3617 8.02459 15.6456 8.13846 15.7879 8.21669C16.0726 8.37961 16.2158 8.60735 16.2158 8.87502C16.2158 9.39287 15.7441 9.77441 15.1099 9.77441C14.4318 9.77441 13.8851 9.47929 13.5566 8.92407L12.6393 9.70047C13.2929 10.5409 14.0814 10.9158 15.1647 10.9158C16.6413 10.9158 17.6798 10.0538 17.6798 8.82014C17.6798 7.80679 17.1996 7.34793 15.5807 6.82927ZM20.2211 7.58151C20.2211 6.54573 21.0676 5.72866 22.145 5.72866C22.6908 5.72866 23.1069 5.90654 23.5837 6.33467L23.5829 4.65387C23.0211 4.37954 22.557 4.26566 22.0052 4.26566C20.0628 4.26566 18.5061 5.74198 18.5061 7.58898C18.5061 9.4576 20.0249 10.904 21.9766 10.904C22.5283 10.904 23.0017 10.8001 23.5829 10.5341L23.5837 8.8525C23.1238 9.27398 22.7186 9.44356 22.1972 9.44356C21.0416 9.44356 20.2211 8.67381 20.2211 7.58151Z" fill="#324D5B"/>
<path d="M25.27 20.0593C26.2 20.0593 26.9547 19.3145 26.9547 18.3968V11.7468L11.7926 20.0593H25.27Z" fill="#F4B459"/>
</svg>
