<svg xmlns="http://www.w3.org/2000/svg" width="26" height="19" viewBox="0 0 26 19" fill="none">
<path d="M24.7314 0.0246582H12.9545H1.1777C0.527291 0.0246582 0 0.545658 0 1.18831V17.8116C0 18.4543 0.527291 18.9753 1.1777 18.9753H12.9545H24.7314C25.3818 18.9753 25.9091 18.4543 25.9091 17.8116V1.18831C25.9091 0.545658 25.3818 0.0246582 24.7314 0.0246582Z" fill="#5286F9"/>
<path d="M13.8541 6.18869C14.1129 6.48169 14.3384 6.80419 14.5239 7.15079C14.8997 7.85284 15.1137 8.65209 15.1137 9.50009C15.1137 10.3481 14.8997 11.1472 14.5239 11.8494C14.3384 12.196 14.1129 12.5184 13.8541 12.8114C13.5877 13.1129 13.2858 13.3827 12.9545 13.6148C13.7872 14.198 14.8027 14.5425 15.8988 14.5425C18.7127 14.5425 21.0021 12.2804 21.0021 9.50009C21.0021 6.71974 18.7127 4.45764 15.8988 4.45764C14.8027 4.45764 13.7872 4.80194 12.9545 5.38529C13.2857 5.61739 13.5876 5.88724 13.8541 6.18869Z" fill="#FFB655"/>
<path d="M14.5239 7.15081C14.3384 6.80411 14.1129 6.48171 13.8541 6.18871C13.5875 5.88716 13.2857 5.61746 12.9545 5.38541C12.122 4.80206 11.1063 4.45776 10.0103 4.45776C7.19635 4.45776 4.90704 6.71981 4.90704 9.50016C4.90704 12.2805 7.1964 14.5426 10.0103 14.5426C11.1063 14.5426 12.122 14.1982 12.9545 13.6149C13.2858 13.3829 13.5876 13.113 13.8541 12.8116C14.1129 12.5186 14.3384 12.1961 14.5239 11.8496C14.8997 11.1474 15.1137 10.3482 15.1137 9.50026C15.1137 8.65206 14.8997 7.85286 14.5239 7.15081Z" fill="#D8143A"/>
<path d="M10.0103 14.5425C7.19635 14.5425 4.90704 12.2805 4.90704 9.50011C4.90704 6.71976 7.1964 4.45771 10.0103 4.45771C11.1063 4.45771 12.1219 4.80201 12.9545 5.38536V0.0246582H1.1777C0.527291 0.0246582 0 0.545658 0 1.18831V17.8116C0 18.4543 0.527291 18.9753 1.1777 18.9753H12.9545V13.6148C12.1219 14.1981 11.1063 14.5425 10.0103 14.5425Z" fill="#3D6DEB"/>
<defs>
<clipPath id="clip0">
</clipPath>
</defs>
</svg>