<svg width="102" height="25" viewBox="0 0 102 25" fill="none" xmlns="http://www.w3.org/2000/svg">
<path d="M38.1246 5.55554H32.4951C32.1049 5.55554 31.7705 5.83332 31.7148 6.22221L29.4295 20.5833C29.4016 20.8333 29.5688 21.0833 29.8197 21.1111C29.8475 21.1111 29.8754 21.1111 29.9033 21.1111H32.5787C32.9688 21.1111 33.3033 20.8333 33.359 20.4444L33.9721 16.5833C34.0279 16.1944 34.3623 15.9167 34.7525 15.9167H36.5361C40.2426 15.9167 42.3885 14.1389 42.9459 10.5833C43.1967 9.02777 42.9459 7.80554 42.2213 6.97221C41.441 6.05554 40.0197 5.55554 38.1246 5.55554ZM38.7934 10.8055C38.4869 12.8055 36.9541 12.8055 35.4492 12.8055H34.6131L35.1984 9.05554C35.2262 8.83332 35.4213 8.66665 35.6721 8.66665H36.0623C37.0656 8.66665 38.041 8.66665 38.5426 9.24999C38.8213 9.58332 38.9049 10.0833 38.7934 10.8055ZM54.9295 10.75H52.2262C52.0033 10.75 51.8082 10.9167 51.7525 11.1389L51.641 11.8889L51.4459 11.6111C50.8607 10.7778 49.5508 10.5 48.2689 10.5C45.2869 10.5 42.7508 12.75 42.2492 15.8889C41.9984 17.4722 42.3607 18.9722 43.2525 20C44.0607 20.9722 45.259 21.3611 46.6525 21.3611C49.0492 21.3611 50.3869 19.8333 50.3869 19.8333L50.2754 20.5833C50.2475 20.8333 50.4148 21.0833 50.6656 21.1111C50.6934 21.1111 50.7213 21.1111 50.7492 21.1111H53.1738C53.5639 21.1111 53.8984 20.8333 53.9541 20.4444L55.4033 11.25C55.4311 11 55.2639 10.75 55.0131 10.7222C54.9852 10.75 54.9574 10.75 54.9295 10.75ZM51.1951 15.9444C50.9443 17.4722 49.718 18.5 48.1574 18.5C47.377 18.5 46.7639 18.25 46.3459 17.7778C45.9557 17.3055 45.7885 16.6389 45.9279 15.8889C46.1787 14.3611 47.4049 13.3055 48.9377 13.3055C49.6902 13.3055 50.3311 13.5555 50.7213 14.0278C51.1393 14.5278 51.3066 15.2222 51.1951 15.9444ZM69.282 10.75H66.5787C66.3279 10.75 66.0771 10.8889 65.9377 11.0833L62.2033 16.5555L60.6148 11.3055C60.5033 10.9722 60.1967 10.75 59.8623 10.75H57.2148C56.9639 10.75 56.741 10.9444 56.741 11.2222C56.741 11.2778 56.741 11.3333 56.7689 11.3611L59.7508 20.0833L56.9639 24.0278C56.8246 24.25 56.8525 24.5278 57.0754 24.6667C57.159 24.7222 57.2426 24.75 57.3541 24.75H60.0574C60.3082 24.75 60.559 24.6389 60.6984 24.4167L69.7 11.4722C69.8394 11.25 69.7836 10.9722 69.5885 10.8333C69.4492 10.7778 69.3656 10.75 69.282 10.75Z" fill="#253B80"/>
<path d="M78.2279 5.55554H72.5984C72.2082 5.55554 71.8738 5.83332 71.818 6.22221L69.5328 20.5833C69.5049 20.8333 69.6721 21.0833 69.9229 21.1111C69.9508 21.1111 69.9787 21.1111 70.0066 21.1111H72.877C73.1557 21.1111 73.3787 20.9167 73.4066 20.6389L74.0475 16.5555C74.1033 16.1667 74.4377 15.8889 74.8279 15.8889H76.6115C80.318 15.8889 82.4639 14.1111 83.0213 10.5555C83.2721 8.99999 83.0213 7.77776 82.2967 6.94443C81.5164 6.05554 80.0951 5.55554 78.2279 5.55554ZM78.8688 10.8055C78.5623 12.8055 77.0295 12.8055 75.5246 12.8055H74.6885L75.2738 9.05554C75.3016 8.83332 75.4967 8.66665 75.7475 8.66665H76.1377C77.141 8.66665 78.1164 8.66665 78.618 9.24999C78.8967 9.58332 78.9803 10.0833 78.8688 10.8055ZM95.0328 10.75H92.3295C92.1066 10.75 91.9115 10.9167 91.8557 11.1389L91.7443 11.8889L91.5492 11.6111C90.9639 10.7778 89.682 10.5 88.3721 10.5C85.3902 10.5 82.8541 12.75 82.3525 15.8889C82.1016 17.4722 82.4639 18.9722 83.3557 20C84.1639 20.9722 85.3623 21.3611 86.7557 21.3611C89.1525 21.3611 90.4902 19.8333 90.4902 19.8333L90.3787 20.5833C90.3508 20.8333 90.518 21.0833 90.7689 21.1111C90.7967 21.1111 90.8246 21.1111 90.8525 21.1111H93.2771C93.6672 21.1111 94.0016 20.8333 94.0574 20.4444L95.5066 11.25C95.5344 11 95.3672 10.75 95.1164 10.7222C95.0607 10.75 95.0328 10.75 95.0328 10.75ZM91.2705 15.9444C91.0197 17.4722 89.7934 18.5 88.2328 18.5C87.4525 18.5 86.8393 18.25 86.4213 17.7778C86.0311 17.3055 85.8639 16.6389 86.0033 15.8889C86.2541 14.3611 87.4803 13.3055 89.0131 13.3055C89.7656 13.3055 90.4066 13.5555 90.7967 14.0278C91.2148 14.5278 91.382 15.2222 91.2705 15.9444ZM98.182 5.94443L95.8689 20.5833C95.841 20.8333 96.0082 21.0833 96.259 21.1111C96.2869 21.1111 96.3148 21.1111 96.3426 21.1111H98.6557C99.0459 21.1111 99.3803 20.8333 99.4361 20.4444L101.721 6.08332C101.749 5.83332 101.582 5.58332 101.331 5.55554C101.303 5.55554 101.275 5.55554 101.248 5.55554H98.6557C98.4328 5.55554 98.2377 5.72221 98.182 5.94443Z" fill="#179BD7"/>
<path d="M6.13115 23.9166L6.54918 21.1944L5.60164 21.1666H1.03115L4.2082 1.08331C4.23607 0.944418 4.34754 0.861084 4.45902 0.861084H12.1787C14.7426 0.861084 16.4984 1.38886 17.418 2.44442C17.8639 2.94442 18.1148 3.44442 18.2541 4.02775C18.3934 4.61108 18.3934 5.33331 18.2541 6.19442V6.24997V6.80553L18.7 7.05553C19.0344 7.22219 19.3131 7.44442 19.5639 7.7222C19.9262 8.13886 20.1771 8.66664 20.2607 9.30553C20.3721 9.94442 20.3443 10.7222 20.1492 11.6111C19.9541 12.6111 19.6197 13.5 19.2016 14.2222C18.8115 14.8611 18.3098 15.4166 17.6967 15.8611C17.1115 16.2778 16.4426 16.5833 15.6902 16.7777C14.9377 16.9722 14.1016 17.0555 13.1541 17.0555H12.541C12.123 17.0555 11.7049 17.2222 11.3705 17.4722C11.0361 17.75 10.841 18.1389 10.7574 18.5555L10.7016 18.8055L10.0049 23.6111L9.97705 23.7778C9.97705 23.8333 9.94918 23.8611 9.92131 23.8889C9.89345 23.9166 9.86558 23.9166 9.83771 23.9166H6.13115Z" fill="#253B80"/>
<path d="M19.0902 6.30554C19.0623 6.44443 19.0344 6.6111 19.0066 6.74999C18.0033 11.9444 14.5197 13.75 10.0607 13.75H7.80328C7.27378 13.75 6.8 14.1389 6.7164 14.6667L5.57377 22L5.23935 24.0833C5.18361 24.3889 5.40656 24.6944 5.71312 24.75C5.74099 24.75 5.76886 24.75 5.79673 24.75H9.80984C10.2836 24.75 10.7016 24.4167 10.7574 23.9444L10.7853 23.75L11.5377 18.9722L11.5934 18.7222C11.6771 18.25 12.0672 17.9167 12.541 17.9167H13.1541C17.0279 17.9167 20.0934 16.3333 20.9853 11.8055C21.3475 9.91665 21.1525 8.30554 20.1771 7.19443C19.8984 6.80554 19.5082 6.52776 19.0902 6.30554Z" fill="#179BD7"/>
<path d="M18.0312 5.88882C17.6967 5.80549 17.3902 5.72215 17.0557 5.6666C16.3869 5.55549 15.718 5.52771 15.0492 5.52771H9.02952C8.55575 5.52771 8.13771 5.86104 8.08198 6.33327L6.77214 14.4444L6.74427 14.6944C6.82788 14.1666 7.30165 13.7777 7.83116 13.7777H10.0885C14.5197 13.7777 18.0033 11.9722 19.0344 6.77771C19.0623 6.61104 19.0902 6.47215 19.118 6.33327C18.8394 6.19438 18.5607 6.08327 18.282 5.97215C18.1984 5.9166 18.1148 5.9166 18.0312 5.88882Z" fill="#222D65"/>
<path d="M8.0541 6.33339C8.13771 5.86117 8.52787 5.52783 9.00164 5.52783H15.0492C15.7738 5.52783 16.4426 5.58339 17.0557 5.66672C17.4738 5.72228 17.8639 5.83339 18.282 5.9445C18.5885 6.05561 18.8672 6.16672 19.118 6.30561C19.4246 4.38894 19.118 3.08339 18.059 1.88894C16.9164 0.583389 14.8262 0.027832 12.1787 0.027832H4.45902C3.92951 0.027832 3.45574 0.416722 3.37213 0.9445L0.167216 21.2223C0.111478 21.5834 0.362298 21.9167 0.724593 21.9723C0.752462 21.9723 0.780331 21.9723 0.836068 21.9723H5.57377L6.77213 14.4167C6.77213 14.4445 8.0541 6.33339 8.0541 6.33339Z" fill="#253B80"/>
</svg>