<svg width="27" height="19" viewBox="0 0 27 19" fill="none" xmlns="http://www.w3.org/2000/svg">
<path d="M27 17.3512C27 18.2484 26.2854 18.9757 25.404 18.9757H1.59601C0.714551 18.9758 0 18.2484 0 17.3512V1.64862C0 0.75143 0.714551 0.0241699 1.59601 0.0241699H25.404C26.2855 0.0241699 27 0.751484 27 1.64862V17.3512Z" fill="white"/>
<path d="M5.99273 9.60921L5.35876 6.51388C5.25039 6.08703 4.93503 5.96004 4.541 5.94324H1.63439L1.6085 6.08466C3.87233 6.64323 5.37025 7.99073 5.99273 9.60921Z" fill="#F79F1A"/>
<path d="M12.7276 6.00549H10.8496L9.6767 13.0112H11.5516L12.7276 6.00549Z" fill="#059BBF"/>
<path d="M7.13733 13.0041L10.091 6.01025H8.10337L6.26595 10.7886L6.06983 10.0671C5.70965 9.19919 4.68028 7.94997 3.47182 7.16356L5.15141 13.0065L7.13733 13.0041Z" fill="#059BBF"/>
<path d="M18.0842 10.721C18.0912 9.92564 17.5894 9.31898 16.5082 8.8179C15.8511 8.49426 15.4505 8.27844 15.4553 7.95002C15.4553 7.65987 15.7945 7.34819 16.5294 7.34819C17.1444 7.33858 17.5871 7.47523 17.9334 7.61671L18.1031 7.69588L18.3576 6.17819C17.9854 6.03665 17.4034 5.88562 16.6757 5.88562C14.8217 5.88562 13.5167 6.83514 13.5048 8.19696C13.493 9.20402 14.4378 9.76505 15.1492 10.1007C15.8794 10.4428 16.1244 10.6617 16.1197 10.9686C16.115 11.4379 15.5378 11.6519 14.9983 11.6519C14.2469 11.6519 13.8487 11.5464 13.2313 11.2846L12.9913 11.1724L12.7278 12.7423C13.1656 12.937 13.9759 13.1073 14.817 13.1144C16.7886 13.1144 18.0701 12.1769 18.0842 10.721Z" fill="#059BBF"/>
<path d="M20.315 11.9611C20.5294 11.9611 22.4445 11.9635 22.7179 11.9635C22.7744 12.2075 22.9464 13.0136 22.9464 13.0136H24.6872L23.1678 6.0127H21.7191C21.2691 6.0127 20.9347 6.13738 20.7367 6.59284L17.95 13.0136H19.9218C19.9217 13.0136 20.242 12.1506 20.315 11.9611ZM21.6012 8.56847C21.5919 8.58763 21.7567 8.16329 21.851 7.89955L21.9781 8.50368C21.9781 8.50368 22.3363 10.1773 22.4116 10.5273H20.8544C21.01 10.1246 21.6012 8.56847 21.6012 8.56847Z" fill="#059BBF"/>
<path d="M25.404 0.0241699H1.59601C0.714551 0.0241699 0 0.75143 0 1.64862V3.33457H27V1.64862C27 0.75143 26.2855 0.0241699 25.404 0.0241699Z" fill="#059BBF"/>
<path d="M25.404 18.9758H1.59601C0.714551 18.9758 0 18.2485 0 17.3514V15.6654H27V17.3514C27 18.2485 26.2855 18.9758 25.404 18.9758Z" fill="#F79F1A"/>
<path opacity="0.15" d="M1.13469 17.3512V1.64862C1.13469 0.75143 1.84929 0.0241699 2.7308 0.0241699H1.59595C0.714551 0.0241699 0 0.75143 0 1.64862V17.3513C0 18.2484 0.714551 18.9758 1.59601 18.9758H2.73085C1.84934 18.9758 1.13469 18.2484 1.13469 17.3512Z" fill="#202121"/>
</svg>
